<?xml version="1.0" encoding="UTF-8"?> <svg xmlns="http://www.w3.org/2000/svg" id="Layer_1" data-name="Layer 1" viewBox="0 0 24 24"><defs><style> .cls-1 { fill: #d9d9d9; } .cls-1, .cls-2, .cls-3, .cls-4 { stroke-width: 0px; } .cls-2 { fill: #d2f1d1; } .cls-3 { fill: #ffd8ce; } .cls-4 { fill: #386c2b; } </style></defs><path class="cls-1" d="M7.55,12.04v.72h-1.1c.31-.28.68-.52,1.1-.72Z"></path><path class="cls-1" d="M17.78,12.76h-1.09v-.69c.41.19.78.42,1.09.69Z"></path><path class="cls-2" d="M9.11,12.76h-1.56v-.72c.46-.23.98-.41,1.56-.53v1.25Z"></path><path class="cls-2" d="M16.69,12.06v.7h-1.58v-1.23c.58.13,1.12.31,1.58.53Z"></path><path class="cls-3" d="M15.48,6.81c-.06,1.15-.53,3.97-3.52,3.97s-3.41-2.86-3.44-4c.08.01.16.02.23.03,1.02.13,2.16.2,3.38.2s2.34-.07,3.35-.2Z"></path><path class="cls-3" d="M15.37,6.32c-.79.1-1.65.16-2.58.18.88-.03,1.7-.09,2.43-.18h.15Z"></path><path class="cls-2" d="M18.79,5.27c0,.21-.82.74-3.33,1.04-.03,0-.06,0-.09,0-.79.1-1.65.16-2.58.18-.21.01-.44.01-.66.01-.3,0-.59,0-.88-.01-.86-.03-1.7-.09-2.44-.19-2.52-.3-3.33-.83-3.33-1.04,0-.15.52-.65,2.86-.98.52-.08.97-.44,1.18-.95l.03-.08c.3-.71,1.05-1.19,1.87-1.19h1.43c.82,0,1.57.48,1.87,1.19l.03.08c.21.51.66.87,1.18.95,2.33.33,2.86.83,2.86.98Z"></path><path class="cls-1" d="M15.11,11.55v1.21h-6v-1.23c.85-.22,1.83-.33,2.92-.33s2.16.12,3.08.35Z"></path><g><path class="cls-4" d="M19.46,21.93H4.54c-.27,0-.51-.2-.55-.47l-.09-.54h16.2s-.09.54-.09.54c-.05.27-.28.47-.55.47Z"></path><path class="cls-4" d="M19.68,13.6c-.05-.06-.12-.09-.2-.09H4.52c-.1,0-.17.05-.2.09-.02.03-.07.1-.06.2l.56,6.2h14.36l.57-6.2c.01-.07-.02-.15-.07-.2ZM13.02,17.77c-.1.09-.2.18-.31.26-.15.12-.3.23-.41.39-.18.25-.42.25-.59,0-.11-.16-.25-.27-.4-.38-.06-.04-.11-.08-.16-.12-.33-.28-.53-.62-.43-1.07.1-.45.41-.7.82-.84.09-.03.18-.05.27-.08-.18-.11-.36-.22-.53-.34-.09-.06-.18-.14-.15-.27.03-.14.16-.16.28-.17.22-.03.42.02.57.19.09.1.15.08.21-.02.03-.05.07-.09.1-.13.02-.03.05-.07.05-.07l.14.09s-.02.05-.03.08c-.1.21-.19.43-.29.64.22.06.44.11.64.23.59.38.69,1.1.22,1.61Z"></path></g></svg> 