<?xml version="1.0" encoding="UTF-8"?> <svg xmlns="http://www.w3.org/2000/svg" xmlns:xlink="http://www.w3.org/1999/xlink" width="54" height="54" viewBox="0 0 54 54"><defs><clipPath id="clip-path"><rect id="Rectangle_3982" data-name="Rectangle 3982" width="54" height="54" transform="translate(-0.243 -0.495)" fill="none"></rect></clipPath></defs><g id="Group_6983" data-name="Group 6983" transform="translate(0.243 0.495)"><g id="Group_6982" data-name="Group 6982" clip-path="url(#clip-path)"><g id="Group_6981" data-name="Group 6981"><g id="Group_6980" data-name="Group 6980" clip-path="url(#clip-path)"><g id="Group_6979" data-name="Group 6979" opacity="0"><g id="Group_6978" data-name="Group 6978"><g id="Group_6977" data-name="Group 6977" clip-path="url(#clip-path)"><rect id="Rectangle_3979" data-name="Rectangle 3979" width="54" height="54" transform="translate(-0.243 -0.495)" fill="#fff"></rect></g></g></g><path id="Path_5305" data-name="Path 5305" d="M48.269,81.1s2.5,9.714,9.744,14.174c-.03-.031,7.3-2.291,11.913-7.392-.03,0-.794-1.222-.794-1.222a2.952,2.952,0,0,1-3.757-.642s-1.039-1.558-.306-2.749v-.061a2.774,2.774,0,0,1-1.985-3.727c-.031,0-2.444-.611-2.444-2.627a2.034,2.034,0,0,1-.947-1.436,17.4,17.4,0,0,0,1.1,5.162c.917,1.955-.183,3.757-2.169,6.14a.677.677,0,0,1-.978,0c0-.061-.489-.428.153-1.1.03-.122,2.444-2.627,1.985-3.94a17.837,17.837,0,0,1-1.4-7.973c-.032-.061.12-1.344.716-1.375.015-.031.718-.031.9.947s1.558,2.871,3.146,2.871,2.032-1.176,1.421-1.787a7.047,7.047,0,0,1-1.97-3.406c-.29-1.527-.626-1.588-1.359-1.619s-3.085,0-3.085,0-3.314.183-5.7,5.162-4.185,6.6-4.185,6.6" transform="translate(-31.602 -45.387)" fill="#f2aa96"></path><path id="Path_5306" data-name="Path 5306" d="M93.52,70.133A6.619,6.619,0,0,0,94.559,73a18.641,18.641,0,0,1,2.658-.9c.076-.061.672-.275.305-1.237s-1.176-1.97-4-.733" transform="translate(-61.229 -45.542)" fill="#f2aa96"></path><path id="Path_5307" data-name="Path 5307" d="M91.971,80.736a2.212,2.212,0,0,1-.443,2.8,3.977,3.977,0,0,1-3.36.519,2.108,2.108,0,0,0,1.726,1.008A32.2,32.2,0,0,1,96.156,82.9a2.877,2.877,0,0,0-.229-2.283,1.6,1.6,0,0,0-2.092-.687l-1.863.809" transform="translate(-57.725 -52.234)" fill="#f2aa96"></path><path id="Path_5308" data-name="Path 5308" d="M94.2,94.858a18.045,18.045,0,0,1,6.079-2.7c0-.031,1.711-.825,1.848,2.337a32.638,32.638,0,0,0-5.865,2.337,1.51,1.51,0,0,1-1.94-.657,1.123,1.123,0,0,1-.122-1.313" transform="translate(-61.561 -60.263)" fill="#f2aa96"></path><path id="Path_5309" data-name="Path 5309" d="M100.291,107.134a1.056,1.056,0,0,1,.061-1.772,18.159,18.159,0,0,1,5.575-2.49c.122-.061,1.008-.32,1.344,1.138a1.693,1.693,0,0,1-1.115,1.962s-2.612.84-3.544,1.3-1.876.555-2.321-.137" transform="translate(-65.358 -67.315)" fill="#f2aa96"></path><path id="Path_5310" data-name="Path 5310" d="M108.692,116.193l.794,1.222s1.543,2.291,3.223,1.481a1.982,1.982,0,0,0,.733-2.825c-.137-.183-.993-1.634-.993-1.634Z" transform="translate(-71.162 -74.923)" fill="#288326"></path><path id="Path_5311" data-name="Path 5311" d="M31.963,110.361a9.978,9.978,0,0,1,3.879-2.78c-.336,0,1.222,5.162,5.437,9.775s3.727,3.879,3.727,3.879L42.012,123.5a2.382,2.382,0,0,1-2.841-.183c-1.5-1.161-9.255-9.989-7.209-12.952" transform="translate(-20.703 -70.435)" fill="#288326"></path><path id="Path_5312" data-name="Path 5312" d="M70.112,59.111a6.28,6.28,0,0,1,3.727-.794c2.5.091,3.177.55,3.268.978-.03-.153.863-.275.863-.275L75.488,54.59,69.5,58.5Z" transform="translate(-45.503 -35.741)" fill="#288326"></path><path id="Path_5313" data-name="Path 5313" d="M39.584,21.635A23.393,23.393,0,0,0,46,19.222c.031-.03.764,1.069.764,1.069a10.944,10.944,0,0,0,1.68-1.07c-.061-.122-.672-1.068-.672-1.068A26.974,26.974,0,0,0,53.3,12.5a43.712,43.712,0,0,0-8.736-10.08c-4.857-3.788-8.8-2.016-10.416,0s-2.352,5.407-.825,9.408a59.99,59.99,0,0,0,5.254,9.5s.092.518,1.008.306" transform="translate(-21.268 -0.128)" fill="#f2aa96"></path></g></g></g></g></svg> 