<?xml version="1.0" encoding="UTF-8"?> <svg xmlns="http://www.w3.org/2000/svg" xmlns:xlink="http://www.w3.org/1999/xlink" width="74.173" height="61.952" viewBox="0 0 74.173 61.952"><defs><clipPath id="clip-path"><rect id="Rectangle_3978" data-name="Rectangle 3978" width="74.173" height="61.952" fill="none"></rect></clipPath></defs><g id="Group_6975" data-name="Group 6975" clip-path="url(#clip-path)"><path id="Path_5268" data-name="Path 5268" d="M63.764,21.322q.116,4.561.234,9.121a3.2,3.2,0,0,1-.2,1.485A3.194,3.194,0,0,1,62.55,33.1C51.488,40.2,39.693,48.254,27.77,53.794c-.556-2.778-2.31-9.5-.455-11.9,2.186-2.822,9.818-4.37,12.961-6.189q5.96-3.447,11.835-7.043c1.4-.86,11.687-6.05,11.654-7.339" transform="translate(10.133 8.158)" fill="#7b6152"></path><path id="Path_5269" data-name="Path 5269" d="M.014,30.5a3.367,3.367,0,0,0,.25,1.79,3.347,3.347,0,0,0,1.4,1.163Q19.717,43.53,37.9,53.372l-.27-11.8c-.018-.795-10.19-4.824-11.393-5.434q-5.776-2.933-11.4-6.154c-3.739-2.142-8.113-3.6-11.072-6.721C.736,20.069.18,26.734.014,30.5" transform="translate(0 8.58)" fill="#fdcc9c"></path><path id="Path_5270" data-name="Path 5270" d="M38.774,6.347a1.556,1.556,0,0,1,2.057.006L61.774,19.079c4.142,2.516,8.329,5.069,11.744,8.507-1.825,2.6-4.7,4.229-7.479,5.767Q52.99,40.564,39.822,47.561a7.919,7.919,0,0,1-3.038,1.109,6.259,6.259,0,0,1-2.832-.593,39.312,39.312,0,0,1-6.666-4.1C21.8,40.261,15.747,37.476,9.756,34.638a38.992,38.992,0,0,1-5.331-2.884c-.763-.52-2.627-1.566-2.71-2.619-.1-1.294,1.9-1.927,2.845-2.49l8.265-4.9L29.5,11.851l9.279-5.5" transform="translate(0.655 2.281)" fill="#301b16"></path><path id="Path_5271" data-name="Path 5271" d="M20.774,31.694c-.583.792-1.681,1.506-1.385,2.444a1.312,1.312,0,0,0,1.735.644,2.949,2.949,0,0,0,1.383-1.5,9.177,9.177,0,0,1,1-1.818,14.7,14.7,0,0,1,1.665-1.41c1.49-1.32.857-3.595-1.251-3.309-2.479.336-2.024,3.418-3.148,4.944" transform="translate(7.399 10.226)" fill="#2d9b32"></path><path id="Path_5272" data-name="Path 5272" d="M19.227,24.063c-.939.6-1.972,1.407-1.969,2.523,0,1.226,1.269,2.055,2.447,2.4a1.543,1.543,0,0,0,1.348-.071,1.862,1.862,0,0,0,.489-.758c.579-1.28,3.057-3,2.671-4.463-.6-2.266-3.884-.336-4.987.372" transform="translate(6.603 8.656)" fill="#2d9b32"></path><path id="Path_5273" data-name="Path 5273" d="M12.623,21.725a20.4,20.4,0,0,1-.648,2.6,3.823,3.823,0,0,1-2.043,1.662,8.11,8.11,0,0,1-5.324.277,8.712,8.712,0,0,0,3.349-4.148,6.317,6.317,0,0,1,1.331-2.646,3.117,3.117,0,0,1,2.862-.513,5.142,5.142,0,0,1,2.095,1.1c-.512.5-1.34.877-1.62,1.674" transform="translate(1.763 7.201)" fill="#2d9b32"></path><path id="Path_5274" data-name="Path 5274" d="M11.626,22.723a2.427,2.427,0,0,0-.491-.476c-1-.8-2.212-1.655-3.455-1.333s-1.9,1.692-2.082,2.959a3.784,3.784,0,0,0,.126,1.878,1.884,1.884,0,0,0,1.348,1.221c1.164.207,2.071-.948,2.684-1.961s1.521-2.168,2.684-1.959a8.465,8.465,0,0,1-3.074-5.938,41.35,41.35,0,0,0,7.8,1.392,10.2,10.2,0,0,1-3.61-1.231c-.729-.506-1.322-1.2-2.09-1.636a2.112,2.112,0,0,0-2.472.065,3.82,3.82,0,0,1,5.6-4.052,6.206,6.206,0,0,1-3.022-5.179c.119-2.088,2.3-4.015,4.272-3.325,1.374.48,2.142,1.923,2.653,3.288a24.216,24.216,0,0,1,1.369,5.649,4.551,4.551,0,0,1,3.187-4.2,11.765,11.765,0,0,1,5.588-.239c.249.033.539.1.636.329.118.285-.149.577-.4.755-1.634,1.156-3.685,1.518-5.51,2.341s-3.591,2.457-3.445,4.453a10.839,10.839,0,0,1,.144,1.378A2.071,2.071,0,0,1,17,18.419l.319-.893" transform="translate(2.119 1.151)" fill="#2d9b32"></path><path id="Path_5275" data-name="Path 5275" d="M32.09,7.672c-.686-.648-3.433-1-4.039-1.051a5.407,5.407,0,0,0-3.734.933A6.659,6.659,0,0,0,22.2,11.279c-.271,1.036,6.809-.538,7.369-.85,3.736-2.082,4.149-6.092.463-8.847A8.941,8.941,0,0,0,23.908.042c-.264.022-.572.087-.676.33s.065.51.224.722A16.467,16.467,0,0,0,28.287,5.9a11.548,11.548,0,0,0,3.963,1.217c.418.059.993-.007,1.049-.424.094.008-.545.288-.636.26s-.12-.141-.129-.235a4.011,4.011,0,0,1,2.261-3.65,11.79,11.79,0,0,1,4.384-1.084,2.315,2.315,0,0,1,1.825.3,1.7,1.7,0,0,1,.286,1.842A6.015,6.015,0,0,1,38.7,6.764a10.568,10.568,0,0,1-3.416,1.7,3.636,3.636,0,0,1-3.533-.932c.156-.239.058.195.337.14" transform="translate(8.491 0.001)" fill="#2d9b32"></path><path id="Path_5276" data-name="Path 5276" d="M42.969,11.58q.811-1.17,1.59-2.361c.25-.382.462-.973.077-1.221a.8.8,0,0,0-.368-.1,7.212,7.212,0,0,0-4.935,1.85c-1.128.895-3.73,3.885-1.62,5.2,1.965,1.221,4.358-2.07,5.255-3.365" transform="translate(14.123 3.016)" fill="#2d9b32"></path><path id="Path_5277" data-name="Path 5277" d="M44.666,11.919a4.12,4.12,0,0,0-1.1.181,3.728,3.728,0,0,0-1.307.872c-1.273,1.207-2.233,3-1.742,4.687,1.442.383,2.926-.321,4.252-1,1.171-.6,4.846-1.724,4.947-3.379.116-1.93-3.705-1.442-5.048-1.358" transform="translate(15.451 4.516)" fill="#2d9b32"></path><path id="Path_5278" data-name="Path 5278" d="M48.117,14.6a2.314,2.314,0,0,0-.651-1.2,2.463,2.463,0,0,0-2.977.254,7.326,7.326,0,0,0-2.8,5.019c.023,1.15.686,1.354,1.033,2.276.46,1.224.339,2.671.8,3.945.239.669.539,1.315.778,1.984.586,1.641.915,3.585,2.378,4.535.589.383,1.372.622,1.612,1.282l.789-.021c1.141-1.5,1.137-3.573.8-5.424a9.376,9.376,0,0,0-1.286-3.535,4.726,4.726,0,0,0-3.013-2.122,6.718,6.718,0,0,1-2.1-.445C46.5,21,48.856,17.559,48.117,14.6" transform="translate(15.951 4.972)" fill="#2d9b32"></path><path id="Path_5279" data-name="Path 5279" d="M36.56,25.756a7.358,7.358,0,0,0,1.662-6.607.784.784,0,0,0-.185-.4.847.847,0,0,0-.484-.177,5.736,5.736,0,0,0-2.478.007c-2.468.751-4.3,5.118-3.936,7.548.481,3.246,3.954,1.24,5.421-.375" transform="translate(11.896 7.056)" fill="#2d9b32"></path><path id="Path_5280" data-name="Path 5280" d="M30.1,13.607a3.692,3.692,0,0,1,4.2-1.331,5.835,5.835,0,0,1,1.134.719,1.664,1.664,0,0,1,.6.642c.232.563-.191,1.166-.588,1.626a6.409,6.409,0,0,1-1.562,1.452c-1.578.918-3.5.242-4.874,1.536a6.177,6.177,0,0,1,1.1-4.643" transform="translate(11.061 4.608)" fill="#2d9b32"></path><path id="Path_5281" data-name="Path 5281" d="M25.33,13.567a4.052,4.052,0,0,1,4.377,1.712,6.448,6.448,0,0,1,.59,2.783,2.5,2.5,0,0,1-.1,1.088,1.947,1.947,0,0,1-.629.769c-1.951,1.547-6.314.744-8-1.025-2.089-2.187,1.8-4.894,3.761-5.327" transform="translate(8.023 5.152)" fill="#2d9b32"></path><path id="Path_5282" data-name="Path 5282" d="M28.251,28.651c.044-.2.144-.458.354-.46a.484.484,0,0,1,.332.21l.926,1.052,1.016,1.154A4.507,4.507,0,0,1,31.966,32.3c.541,1.973-.589,5.073-2.884,3.679-2.48-1.506-1.311-5.1-.831-7.328" transform="translate(10.542 10.787)" fill="#2d9b32"></path><path id="Path_5283" data-name="Path 5283" d="M22.189,10.65a2.869,2.869,0,0,1,2.738.607c-.083,2.639-.74,5.428-2.652,7.249-1.808,1.72-5.555.781-5.287-1.98.22-2.27,3.038-5.335,5.2-5.876" transform="translate(6.494 4.033)" fill="#2d9b32"></path><path id="Path_5284" data-name="Path 5284" d="M22.561,8.3A3.581,3.581,0,0,1,26.1,11.347a11.233,11.233,0,0,0-2.585,2.041c-1.636,1.423-6.715,3.685-7.51.144-.581-2.588,4.488-5.161,6.555-5.228" transform="translate(6.106 3.177)" fill="#2d9b32"></path><path id="Path_5285" data-name="Path 5285" d="M33.124,15.856a5.059,5.059,0,0,1,5.008,2.061c.235.365.459.8.877.921a4.39,4.39,0,0,0,.765.032c.254.024.539.2.524.453a6.419,6.419,0,0,0-4.126,1.907,17.341,17.341,0,0,1-1.5,1.587,4.1,4.1,0,0,1-3.548.7c-1.651-.431-4.323-2.681-3.285-4.634.691-1.3,3.924-2.8,5.284-3.022" transform="translate(10.562 6.042)" fill="#2d9b32"></path><path id="Path_5286" data-name="Path 5286" d="M35.566,11.654c1.069-.9,1.177-2.486,1.782-3.75a4.961,4.961,0,0,1,2.67-2.464,5.726,5.726,0,0,0-4.646-.474,3.975,3.975,0,0,0-1.883,1.248,5.177,5.177,0,0,0-.882,2.3,14.46,14.46,0,0,0-.058,5.673c.825-1.266,1.878-1.564,3.017-2.529" transform="translate(12.355 1.791)" fill="#2d9b32"></path><path id="Path_5287" data-name="Path 5287" d="M40.949,4.3l.062-.742c.025-.286-9.9-2.373-9.7,2.111.159,3.5,8.037-.77,9.635-1.369" transform="translate(11.98 1.081)" fill="#2d9b32"></path><path id="Path_5288" data-name="Path 5288" d="M22.077,5.821c-.766.365-.85,1.434-.635,2.255a5.679,5.679,0,0,0,1.813,2.877,1.911,1.911,0,0,0,1.036.514,2.293,2.293,0,0,0,1-.225l2.436-.954c1.854-.726,1.764-2.115.264-2.74-1.931-.8-3.967-.483-5.913-1.727" transform="translate(8.165 2.228)" fill="#2d9b32"></path><path id="Path_5289" data-name="Path 5289" d="M17.691,23.453a7.972,7.972,0,0,0,5.389,5.181,5.429,5.429,0,0,0,2.252.2,6.212,6.212,0,0,0,3.009-1.544,7.189,7.189,0,0,0,2.681-4.263,3.823,3.823,0,0,0-2.255-4.173c-.593-.2-1.319-.259-1.649-.789-1.138-1.833-.018-2.05-2.606-2.53-1.3-.241-2.638-.653-3.916-.113-2.854,1.2-3.733,5.352-2.9,8.033" transform="translate(6.655 5.799)" fill="#2fa52f"></path><path id="Path_5290" data-name="Path 5290" d="M26.62,23.306a17.65,17.65,0,0,0,.471,6.259,2.585,2.585,0,0,0,.492,1.092c.736.83,2.118.495,3.032-.131a6.912,6.912,0,0,0,2.926-6.063,3.873,3.873,0,0,0-.52-1.8A3.489,3.489,0,0,0,30.566,21.2c-1.882-.283-3.723-.024-3.946,2.108" transform="translate(10.149 8.075)" fill="#8c59ce"></path><path id="Path_5291" data-name="Path 5291" d="M12.766,20.921a3.271,3.271,0,0,0,.874,1,4.5,4.5,0,0,0,2.825,1.4,3.077,3.077,0,0,0,2.457-1.562c1.869-3.053,1.244-8.558-2.807-9.432-4.091-.881-4.57,6.05-3.349,8.6" transform="translate(4.659 4.686)" fill="#8c59ce"></path><path id="Path_5292" data-name="Path 5292" d="M13.71,21l-.571.5A3.82,3.82,0,0,1,15.1,24.891a7.369,7.369,0,0,1-1.233,3.877,2.556,2.556,0,0,1-.771.886,1.906,1.906,0,0,1-2.456-.8,5.278,5.278,0,0,1-.578-2.769c-.057-3.459,1.511-3.779,3.234-6.157,1.106-1.528,1.565-5.024-.644-5.869a1.6,1.6,0,0,0-2.114.994" transform="translate(3.85 5.342)" fill="#8c59ce"></path><path id="Path_5293" data-name="Path 5293" d="M18.822,27.587a2.748,2.748,0,0,0,1.869-1.305,4.885,4.885,0,0,0,1-1.851c.679-3.057-2.829-7.259-5.735-4.574-2.185,2.017-.184,7.857,2.866,7.73" transform="translate(5.752 7.269)" fill="#8c59ce"></path><path id="Path_5294" data-name="Path 5294" d="M7.282,18.767a5.274,5.274,0,0,0,2.205,3.541c1.048.885,2.487,1.687,3.728,1.1a3.056,3.056,0,0,0,1.3-1.37c1.2-2.215,1.119-6.878-1.934-7.707-2.279-.617-5.391,2.183-5.294,4.435" transform="translate(2.785 5.451)" fill="#8c59ce"></path><path id="Path_5295" data-name="Path 5295" d="M25.623,24.476a3.222,3.222,0,0,0-4.086,1.042,3.434,3.434,0,0,0,.517,4.236,3.678,3.678,0,0,0,4.293.447,2.618,2.618,0,0,0,1.077-1.135A3.53,3.53,0,0,0,27.4,26.7a13.572,13.572,0,0,0-.8-2.139,2.465,2.465,0,0,0-.628-.908c-.8-.639-1.965-.209-2.88.242" transform="translate(8.046 8.928)" fill="#8c59ce"></path><path id="Path_5296" data-name="Path 5296" d="M32.507,28.127a1.221,1.221,0,0,0-1.663-.532,2.422,2.422,0,0,0-1.124,1.551,3.608,3.608,0,0,0,.379,3.076,5.551,5.551,0,0,0,2.421,1.63,1.413,1.413,0,0,0,.791.176c.416-.072.673-.488.83-.882a3.924,3.924,0,0,0-.3-3.649,2.663,2.663,0,0,0-3.367-.861" transform="translate(11.304 10.509)" fill="#8c59ce"></path><path id="Path_5297" data-name="Path 5297" d="M23.7,33.81a3.753,3.753,0,0,0,1.967,2.5,2.139,2.139,0,0,0,1.784.088,2.373,2.373,0,0,0,.866-.783c1.348-1.861,1.207-6.065-1.514-6.82-2.609-.724-3.588,3.082-3.1,5.017" transform="translate(9.022 10.982)" fill="#8c59ce"></path><path id="Path_5298" data-name="Path 5298" d="M38.166,29.84a1.215,1.215,0,0,0,.625.073c.465-.1.687-.621.838-1.073.636-1.9,1.217-8.191-2.811-6.309-3.237,1.513-1.341,6.424,1.348,7.308" transform="translate(13.434 8.488)" fill="#8c59ce"></path><path id="Path_5299" data-name="Path 5299" d="M41.984,16.011a2.344,2.344,0,0,0-3.2.925,5.085,5.085,0,0,0-.3,3.657,5.433,5.433,0,0,0,.95,2.245c2.279,2.858,5.388-1.9,8.088.238.965.762,1.13,2.143,1.157,3.372a4.517,4.517,0,0,1-.875,3.325,1.433,1.433,0,0,1-.683.42,1.747,1.747,0,0,1-.85-.062,5.508,5.508,0,0,1-3.686-6.589c.346-1.188,1.421-2.368,2.628-2.1h0" transform="translate(14.65 5.999)" fill="#8c59ce"></path><path id="Path_5300" data-name="Path 5300" d="M29.28,16.61a1.2,1.2,0,0,1-1.594.174,2.916,2.916,0,0,1-1-1.428,11.542,11.542,0,0,1-.8-5.087A6.167,6.167,0,0,1,27.127,6.7a3.248,3.248,0,0,1,3.426-1.125A4.173,4.173,0,0,1,32.621,7.6a10.821,10.821,0,0,1,.7,8.965c-.441,1.182-1.305,2.421-2.565,2.473a2.947,2.947,0,0,1-2.165-1.1,6.123,6.123,0,0,1-1.55-3.253" transform="translate(9.894 2.08)" fill="#8c59ce"></path><path id="Path_5301" data-name="Path 5301" d="M21.973,10.659a3.812,3.812,0,0,0,.543,3.06,8.336,8.336,0,0,0,2.274,2.23,2.962,2.962,0,0,0,1.156.575c1.15.206,2.136-.886,2.543-1.983a4.524,4.524,0,0,0-.083-3.627c-1.1-2.1-5.6-3.053-6.433-.256" transform="translate(8.359 3.415)" fill="#8c59ce"></path><path id="Path_5302" data-name="Path 5302" d="M38.932,13.6a1.579,1.579,0,0,0-.4-1.636,3,3,0,0,0-1.582-.766,3.637,3.637,0,0,0-2.97.557,3.841,3.841,0,0,0-1.146,1.76,7.011,7.011,0,0,0,1.64,7.151,3.45,3.45,0,0,0,1.847,1.051c1.587.236,2.928-1.21,3.6-2.666a5.779,5.779,0,0,0,.247-5.011c-.8-1.537-3.015-2.352-4.368-1.266" transform="translate(12.419 4.249)" fill="#8c59ce"></path><path id="Path_5303" data-name="Path 5303" d="M39.642,23.649a.551.551,0,0,0,.108.184,2.036,2.036,0,0,1,.351,1.312,1.719,1.719,0,0,0,.989-.069c.293-.209.044-.719.274-.933a.356.356,0,0,1,.1-.05.585.585,0,0,0,.263-.484,9.992,9.992,0,0,0-.105-2.057c-.08-1.094.09-2.19.05-3.285a2.391,2.391,0,0,0-.152-.856,1.006,1.006,0,0,0-.606-.59,1.232,1.232,0,0,0-.422-.033.843.843,0,0,0-.364.087.973.973,0,0,0-.365.807,15.414,15.414,0,0,0-.035,2.514,9.082,9.082,0,0,1-.05,3.2.519.519,0,0,0-.033.257m.618-6.374c.047-.087.109-.181.207-.2a.34.34,0,0,1,.167.033.526.526,0,0,1,.176.094.112.112,0,0,1,.035.046.16.16,0,0,1,0,.068c-.019.149-.065.348-.254.319-.149-.024-.423-.2-.332-.364" transform="translate(15.165 6.422)" fill="#703b24"></path><path id="Path_5304" data-name="Path 5304" d="M38.233,31.876l0,.026,1.207-.7c-.029-.452.057-1.282.061-1.724,0-.306-.033-.611-.055-.915A9.741,9.741,0,0,1,39.5,26.65a.835.835,0,0,1,.317-.658c.3-.167.683.084.8.4A2.272,2.272,0,0,1,40.63,27.4a10.221,10.221,0,0,0-.035,1.182q.006.973.014,1.945l1.34-.773c0-.131.01-.264.017-.4.019-.458.039-.915.014-1.373a11.1,11.1,0,0,1-.071-1.587.751.751,0,0,1,.151-.445.588.588,0,0,1,.866.145,1.7,1.7,0,0,1,.2.972c.008.8.015,1.391.024,1.988l1.284-.742c-.01-.785-.019-1.468-.029-2.491a1.453,1.453,0,0,0-.21-.906,1.571,1.571,0,0,0-1.008-.426,10.579,10.579,0,0,1-1.054-.245.344.344,0,0,1-.17-.086.352.352,0,0,1-.069-.174l-.257-1.284-.9,0a3.094,3.094,0,0,1,0,.807,1.032,1.032,0,0,1-.4.679c-.343.234-.8.158-1.2.285a1.693,1.693,0,0,0-1.022,1.42,8.046,8.046,0,0,0,.088,1.837c.113,1.24-.04,2.891.025,4.135" transform="translate(14.573 8.689)" fill="#d1d3d4"></path></g></svg> 