<?xml version="1.0" encoding="UTF-8"?> <svg xmlns="http://www.w3.org/2000/svg" xmlns:xlink="http://www.w3.org/1999/xlink" id="Group_6990" data-name="Group 6990" width="61.997" height="61.997" viewBox="0 0 61.997 61.997"><defs><clipPath id="clip-path"><rect id="Rectangle_3986" data-name="Rectangle 3986" width="61.997" height="61.997" fill="none"></rect></clipPath></defs><g id="Group_6989" data-name="Group 6989" clip-path="url(#clip-path)"><g id="Group_6988" data-name="Group 6988"><g id="Group_6987" data-name="Group 6987" clip-path="url(#clip-path)"><g id="Group_6986" data-name="Group 6986" opacity="0"><g id="Group_6985" data-name="Group 6985"><g id="Group_6984" data-name="Group 6984" clip-path="url(#clip-path)"><rect id="Rectangle_3983" data-name="Rectangle 3983" width="61.997" height="61.997" fill="#fff"></rect></g></g></g><path id="Path_5314" data-name="Path 5314" d="M23.942,24S29.3,12.535,42.871,12.535,61.95,24,61.95,24h3.906a8.9,8.9,0,0,0-4.223-5.342c-3.505-2-2.137-3.839-5.208-5.976s-5.608-.267-8.279-2.1A8.66,8.66,0,0,0,43.31,8.846,8.188,8.188,0,0,0,39,10.248c-1.937,1.4-3.539,1.2-5.542,1.1s-4.307,1.436-5.609,3.539a9.833,9.833,0,0,1-4.573,4.173C20.8,20.43,20.3,24,20.3,24Z" transform="translate(-12.181 -5.307)" fill="#288326"></path><path id="Path_5315" data-name="Path 5315" d="M25.832,107.7h4.357s5.084,7.336,16.439,7.336S62.338,107.7,62.338,107.7h4.256a12.591,12.591,0,0,0-5.358,5.434c-1.628,3.605-6.31,1.753-10.191,3.755s-4.807,1.778-4.807,1.778a6.4,6.4,0,0,1-4.131-1.452c-1.953-1.6-7.336.326-9.615-2.955s-3.681-5.884-6.66-6.56" transform="translate(-15.499 -64.618)" fill="#288326"></path><path id="Path_5316" data-name="Path 5316" d="M113.086,116.227a7.992,7.992,0,0,0,2.6-3.08,5.706,5.706,0,0,1,3.755-3.655,3.37,3.37,0,0,0,2.354-2.229l6.285,6.36s1.1,1.427-.8,1.928-4.106.952-4.106.952a1.783,1.783,0,0,0-1.252,1.677c-.2,1.477-.751,3.956-.751,3.956s-.526,1.527-2.1,0-5.984-5.909-5.984-5.909" transform="translate(-67.849 -64.355)" fill="#f2aa96"></path><path id="Path_5317" data-name="Path 5317" d="M18.926,116.227a7.992,7.992,0,0,1-2.6-3.08,5.706,5.706,0,0,0-3.755-3.655,3.37,3.37,0,0,1-2.354-2.229l-6.285,6.36s-1.1,1.427.8,1.928,4.106.952,4.106.952a1.783,1.783,0,0,1,1.252,1.677c.2,1.477.751,3.956.751,3.956s.526,1.527,2.1,0,5.984-5.909,5.984-5.909" transform="translate(-2.167 -64.355)" fill="#f2aa96"></path><path id="Path_5318" data-name="Path 5318" d="M79.725,68.17c-.789,0-1.172.755-1.172,3.815s.383,3.8,1.172,3.8c.811,0,1.194-.729,1.194-3.8s-.383-3.815-1.194-3.815" transform="translate(-47.13 -40.9)" fill="#288326"></path><path id="Path_5319" data-name="Path 5319" d="M51.276,68.17c-.789,0-1.172.755-1.172,3.815s.384,3.8,1.172,3.8c.811,0,1.194-.729,1.194-3.8s-.383-3.815-1.194-3.815" transform="translate(-30.061 -40.9)" fill="#288326"></path><path id="Path_5320" data-name="Path 5320" d="M104.961,68.848c0-1.3-.2-1.849-.654-1.849s-.631.52-.631,1.849.18,1.836.631,1.836.654-.547.654-1.836" transform="translate(-62.204 -40.198)" fill="#288326"></path><path id="Path_5321" data-name="Path 5321" d="M61.175,52.243H10.8A2.053,2.053,0,0,0,8.744,54.3V70.171A2.053,2.053,0,0,0,10.8,72.224H61.175a2.053,2.053,0,0,0,2.053-2.053V54.3a2.053,2.053,0,0,0-2.053-2.053M20.016,67.116c-.586,0-1.037-.039-2.479-.039s-1.893.039-2.479.039c-.541,0-.789-.2-.789-.39,0-.573,1.307-.312,1.307-1.315V60.215c0-.378-.135-.625-.541-.625-.361,0-.608.091-.992.091s-.676-.182-.676-.482c0-.2.2-.364.676-.469.608-.13,1.487-.274,3.291-.69a13.394,13.394,0,0,1,2.276-.495c.428,0,.744.182.744.43,0,.521-.856.56-.856,1.263V65.41c0,1,1.307.742,1.307,1.315,0,.2-.248.39-.788.39m6.332.248a4.686,4.686,0,0,1-5-4.934,4.881,4.881,0,0,1,5.228-4.96c3.11,0,5.026,1.849,5.026,4.96,0,2.929-2.164,4.934-5.251,4.934m11.38,0a4.686,4.686,0,0,1-5-4.934,4.882,4.882,0,0,1,5.229-4.96c3.11,0,5.026,1.849,5.026,4.96,0,2.929-2.164,4.934-5.251,4.934M43.9,59.994c0-1.667,1.352-2.747,3.448-2.747s3.426,1.068,3.426,2.747-1.33,2.721-3.426,2.721S43.9,61.635,43.9,59.994M48,67.3c-.586,0-.766-.2-.766-.43a2.033,2.033,0,0,1,.586-1.107L54.044,58a1.833,1.833,0,0,1,1.487-.755c.586,0,.766.2.766.43a2.074,2.074,0,0,1-.586,1.106l-6.22,7.759A1.866,1.866,0,0,1,48,67.3m8.339-.117c-2.1,0-3.448-1.08-3.448-2.721,0-1.667,1.352-2.747,3.448-2.747s3.426,1.068,3.426,2.747-1.33,2.721-3.426,2.721" transform="translate(-5.246 -31.344)" fill="#288326"></path><path id="Path_5322" data-name="Path 5322" d="M126.787,78.162c-.451,0-.631.521-.631,1.849s.18,1.836.631,1.836.654-.546.654-1.836-.2-1.849-.654-1.849" transform="translate(-75.69 -46.895)" fill="#288326"></path></g></g></g></svg> 